<?xml version="1.0"?><svg width="640" height="480" xmlns="http://www.w3.org/2000/svg">
 <title>fff</title>
 <metadata id="metadata7">image/svg+xmlSmiley eyesSmiley eyes mouth look funny happy</metadata>
 <g>
  <title>Layer 1</title>
  <g id="layer1">
   <g id="g3196">
    <g id="g3164">
     <path id="path3166" d="m313.619873,210.953064a77.360168,122.81044 0 1 1154.720276,20.613251a77.360168,122.81044 0 1 1-154.720276,-20.613251z" stroke-dashoffset="2" stroke-miterlimit="4" stroke-linejoin="round" stroke-linecap="round" stroke-width="20" fill-rule="evenodd" fill="#000000"/>
     <path id="path3168" d="m314.841919,221.701569a69.414253,110.196182 0 1 1138.828552,18.496002a69.414253,110.196182 0 1 1-138.828552,-18.496002z" stroke-dashoffset="2" stroke-miterlimit="4" stroke-linejoin="round" stroke-linecap="round" stroke-width="20" fill-rule="evenodd" fill="#ffffff"/>
    </g>
    <g id="g3160">
     <path id="path2383" d="m338.22348,208.188507a78.677544,124.901802 0 1 1-157.355103,0a78.677544,124.901802 0 1 1157.355103,0z" stroke-dashoffset="2" stroke-miterlimit="4" stroke-linejoin="round" stroke-linecap="round" stroke-width="20" fill-rule="evenodd" fill="#000000"/>
     <path id="path3155" d="m334.297241,218.596985a70.596321,112.072731 0 1 1-141.192673,0a70.596321,112.072731 0 1 1141.192673,0z" stroke-dashoffset="2" stroke-miterlimit="4" stroke-linejoin="round" stroke-linecap="round" stroke-width="20" fill-rule="evenodd" fill="#ffffff"/>
    </g>
    <path d="m283.903931,274.270233a28.284269,32.677792 0 1 1-56.568527,0a28.284269,32.677792 0 1 156.568527,0z" id="path3170" stroke-dashoffset="2" stroke-miterlimit="4" stroke-linejoin="round" stroke-linecap="round" stroke-width="20" fill-rule="evenodd" fill="#000000"/>
    <path d="m404.844025,282.198303a28.006069,32.356377 0 1 1-56.012115,-5.689606a28.006069,32.356377 0 1 156.012115,5.689606z" id="path3172" stroke-dashoffset="2" stroke-miterlimit="4" stroke-linejoin="round" stroke-linecap="round" stroke-width="20" fill-rule="evenodd" fill="#000000"/>
    <path id="path3174" d="m200.763367,17.595184c-48.365997,9.623291 -73.462883,54.182587 -56.026337,99.470612c0.384811,0.99942 0.791077,1.992279 1.21048,2.975555c-1.415192,-42.369431 24.286392,-77.984161 67.234436,-86.529465c30.986374,-6.165298 64.360687,3.092484 91.467072,22.561111c-24.27597,-29.606445 -65.658859,-46.08371 -103.885651,-38.477814z" stroke-dashoffset="2" stroke-miterlimit="4" stroke-linejoin="round" stroke-linecap="round" stroke-width="20" fill-rule="evenodd" fill="#000000"/>
    <path id="path3179" d="m499.013031,18.463745c48.365997,9.623291 73.462921,54.182602 56.026337,99.470612c-0.384766,0.999451 -0.791077,1.992279 -1.210449,2.975555c1.415161,-42.369446 -24.286438,-77.984161 -67.234467,-86.529449c-30.986389,-6.165314 -64.360718,3.092468 -91.467102,22.561096c24.27597,-29.60643 65.658875,-46.08371 103.885681,-38.477814z" stroke-dashoffset="2" stroke-miterlimit="4" stroke-linejoin="round" stroke-linecap="round" stroke-width="20" fill-rule="evenodd" fill="#000000"/>
    <g id="g3192">
     <path d="m272.537994,389.751221c-35.804993,18.093384 -80.792999,23.249146 -120.640991,10.767334c-27.768501,-8.697693 -48.5149,-24.533081 -60.542603,-43.890198c-6.150101,1.626099 -12.467606,2.935181 -18.882095,3.953796c11.392494,21.765381 33.284996,39.770325 63.558884,49.252991c46.002808,14.409851 98.839813,5.283752 136.506805,-20.083923l0,0z" id="path3181" stroke-dashoffset="2" stroke-miterlimit="4" stroke-linejoin="round" stroke-linecap="round" stroke-width="20" fill-rule="evenodd" fill="#000000"/>
     <path d="m93.214272,337.492249l15,7.702179l-49.285702,40.565094l-21.42857,-13.350525l55.714272,-34.916748z" id="path3189" stroke-width="1px" stroke="#000000" fill-rule="evenodd" fill="#000000"/>
    </g>
   </g>
  </g>
 </g>
</svg>